<svg xmlns="http://www.w3.org/2000/svg" xmlns:xlink="http://www.w3.org/1999/xlink" width="1024" zoomAndPan="magnify" viewBox="0 0 768 767.999994" height="1024" preserveAspectRatio="xMidYMid meet" version="1.0"><defs><clipPath id="d20da6db0e"><path d="M 0 169.441406 L 768 169.441406 L 768 598.441406 L 0 598.441406 Z M 0 169.441406 " clip-rule="nonzero"/></clipPath></defs><g clip-path="url(#d20da6db0e)"><path fill="#ffffff" d="M 634.554688 562.164062 L 151.933594 562.164062 C 88.664062 562.164062 37.1875 513.519531 37.1875 453.734375 C 37.1875 393.972656 88.664062 345.363281 151.933594 345.363281 C 154.898438 345.363281 158.136719 345.5 161.828125 345.777344 C 167.046875 346.175781 172.210938 344.3125 175.96875 340.652344 C 179.726562 336.984375 181.722656 331.878906 181.453125 326.640625 C 181.355469 324.65625 181.300781 322.671875 181.300781 320.734375 C 181.300781 257.460938 235.765625 205.988281 302.714844 205.988281 C 351.105469 205.988281 394.832031 233.140625 414.125 275.15625 C 416.472656 280.28125 421.054688 284.023438 426.53125 285.3125 C 432.015625 286.609375 437.785156 285.289062 442.171875 281.753906 C 457.679688 269.25 477.4375 262.363281 497.796875 262.363281 C 545.023438 262.363281 583.4375 298.570312 583.4375 343.074219 C 583.4375 347.824219 582.980469 352.625 582.070312 357.367188 C 580.859375 363.65625 583.039062 370.128906 587.816406 374.40625 C 592.59375 378.683594 599.265625 380.140625 605.386719 378.246094 C 614.851562 375.316406 624.667969 373.832031 634.554688 373.832031 C 687.628906 373.832031 730.8125 416.074219 730.8125 468 C 730.8125 519.921875 687.628906 562.164062 634.554688 562.164062 Z M 634.554688 337.324219 C 629.628906 337.324219 624.714844 337.589844 619.839844 338.125 C 617.128906 275.777344 563.425781 225.855469 497.796875 225.855469 C 476.433594 225.855469 455.507812 231.277344 437.132812 241.367188 C 408.640625 197.121094 357.960938 169.480469 302.714844 169.480469 C 219.761719 169.480469 151.542969 231.054688 145.261719 308.992188 C 64.945312 312.347656 0.679688 375.988281 0.679688 453.734375 C 0.679688 533.652344 68.53125 598.671875 151.933594 598.671875 L 634.554688 598.671875 C 707.761719 598.671875 767.320312 540.050781 767.320312 468 C 767.320312 395.945312 707.761719 337.324219 634.554688 337.324219 " fill-opacity="1" fill-rule="nonzero"/></g></svg>